<svg width="48" height="48" viewBox="0 0 48 48" fill="none" xmlns="http://www.w3.org/2000/svg">
<path d="M21.0436 12.4994L23.3962 9.51348L21.0441 12.4994H21.0436ZM38.4469 12.4994H38.4456C38.4951 12.2971 38.5132 12.0865 38.4974 11.8751C38.4654 11.447 38.2968 11.0431 38.0202 10.7211C38.2754 11.0177 38.4393 11.3845 38.4884 11.7767C38.5189 12.0201 38.5041 12.2649 38.4469 12.4994ZM30.4266 3.99908L31.8647 5.26736L30.4257 4.00004C30.4256 3.99993 30.4255 3.99982 30.4254 3.99971C30.222 3.82058 29.9844 3.68464 29.7268 3.60015C29.4691 3.51562 29.197 3.48438 28.9268 3.50833C28.7467 3.52429 28.5701 3.56456 28.4015 3.62771C28.5691 3.56478 28.7447 3.52448 28.9238 3.50821C29.1945 3.48361 29.4674 3.51445 29.7258 3.59885C29.9841 3.68323 30.2225 3.81938 30.4265 3.99899C30.4266 3.99902 30.4266 3.99905 30.4266 3.99908ZM9.50299 17.3302L7.5 16.6173V14.4994C7.5 15.295 7.81607 16.0581 8.37868 16.6207C8.84495 17.087 9.44889 17.3839 10.095 17.4719C9.886 17.4444 9.68939 17.3966 9.50299 17.3302ZM40.0355 18.9639C40.2591 19.1874 40.4592 19.4299 40.6345 19.6876C39.7343 18.3669 38.218 17.4994 36.5 17.4994C37.8261 17.4994 39.0979 18.0262 40.0355 18.9639Z" fill="white" stroke="white" stroke-width="3"/>
</svg>
