<svg width="68" height="68" viewBox="0 0 68 68" fill="none" xmlns="http://www.w3.org/2000/svg">
<path fill-rule="evenodd" clip-rule="evenodd" d="M8.99996 0.664062H59C63.6023 0.664062 67.3333 4.39502 67.3333 8.9974V58.9974C67.3333 63.5998 63.6023 67.3307 59 67.3307H8.99996C4.39759 67.3307 0.666626 63.5998 0.666626 58.9974V8.9974C0.666626 4.39502 4.39759 0.664062 8.99996 0.664062ZM46.5 17.3307C48.8011 17.3307 50.6666 19.1962 50.6666 21.4974V42.3307C50.6666 44.6319 48.8011 46.4974 46.5 46.4974C44.1988 46.4974 42.3333 44.6319 42.3333 42.3307V21.4974C42.3333 19.1962 44.1988 17.3307 46.5 17.3307ZM38.1666 29.8307C38.1666 27.5295 36.3011 25.6641 34 25.6641C31.6988 25.6641 29.8333 27.5295 29.8333 29.8307V42.3307C29.8333 44.6319 31.6988 46.4974 34 46.4974C36.3011 46.4974 38.1666 44.6319 38.1666 42.3307V29.8307ZM25.6666 38.1641C25.6666 35.8629 23.8011 33.9974 21.5 33.9974C19.1988 33.9974 17.3333 35.8629 17.3333 38.1641V42.3307C17.3333 44.6319 19.1988 46.4974 21.5 46.4974C23.8011 46.4974 25.6666 44.6319 25.6666 42.3307V38.1641Z" fill="#219653"/>
</svg>
