<svg width="32" height="32" viewBox="0 0 32 32" fill="none" xmlns="http://www.w3.org/2000/svg">
<rect width="32" height="32" rx="3" fill="#091E42" fill-opacity="0.06"/>
<path d="M9.795 18.3056L8.023 16.5306L6.25 18.3056M22.205 13.7266L23.977 15.5026L25.75 13.7266" stroke="#44546F" stroke-width="2" stroke-linecap="round" stroke-linejoin="round"/>
<path d="M23.9769 15.5056C23.9769 13.3856 23.137 11.3546 21.641 9.85563C20.9007 9.11394 20.0214 8.52549 19.0534 8.12397C18.0855 7.72245 17.0479 7.51573 15.9999 7.51563C14.9819 7.51404 13.9733 7.71 13.0299 8.09263C11.9765 8.5148 11.0253 9.15689 10.2398 9.97601C9.45428 10.7951 8.85261 11.7724 8.47495 12.8426M8.02295 16.5326C8.02424 18.3872 8.67008 20.1837 9.84995 21.6146C11.028 23.0444 12.6674 24.019 14.4863 24.3707C16.3052 24.7224 18.1898 24.4292 19.8159 23.5416C21.4429 22.6538 22.7103 21.2276 23.4009 19.5076" stroke="#44546F" stroke-width="2" stroke-linecap="round" stroke-linejoin="round"/>
<path d="M13.58 17.9806C13.6318 18.5744 13.9141 19.1242 14.3665 19.5123C14.8188 19.9003 15.4052 20.0958 16 20.0566C17.952 20.0566 18.42 18.9336 18.42 17.9806C18.42 17.0276 17.613 16.0176 16 16.0176C14.387 16.0176 13.58 15.3796 13.58 14.0796C13.6029 13.6293 13.7622 13.1966 14.0367 12.8389C14.3112 12.4812 14.6879 12.2153 15.117 12.0766C15.402 11.9846 15.702 11.9516 16 11.9796C16.5954 11.9535 17.1783 12.1567 17.6285 12.5473C18.0786 12.938 18.3619 13.4864 18.42 14.0796M16 21.2666V20.2156M16 10.7656V11.9756" stroke="#44546F" stroke-width="2" stroke-linecap="round" stroke-linejoin="round"/>
</svg>
