<svg width="36" height="36" viewBox="0 0 36 36" fill="none" xmlns="http://www.w3.org/2000/svg">
<path d="M35.7865 16.3992L34.4111 16.9975C34.3524 16.8628 34.2667 16.7416 34.1593 16.6414L18 1.58024L1.84071 16.6414C1.84062 16.6415 1.84053 16.6415 1.84043 16.6416C1.7331 16.7418 1.6475 16.8629 1.58894 16.9975C1.53039 17.1321 1.50012 17.2773 1.5 17.424C1.5 17.4241 1.5 17.4242 1.5 17.4243C1.5 17.4244 1.5 17.4245 1.5 17.4246L1.5 32.1429C1.5 32.768 1.74834 33.3676 2.19039 33.8096C2.63244 34.2517 3.23199 34.5 3.85714 34.5H32.1429C32.768 34.5 33.3676 34.2517 33.8096 33.8096C34.2517 33.3676 34.5 32.768 34.5 32.1429V17.4246L35.7865 16.3992ZM35.7865 16.3992L34.4111 16.9976C34.4696 17.1321 34.4999 17.2773 34.5 17.424L35.7865 16.3992ZM12.6531 22.5V23.5715H9H7.5V25.0715V32.7857V34.2857H9H12.204H16.7143H17.7857H18.2143H19.2857H22.5463H27H28.5V32.7857V25.0715V23.5715H27H23.3674V22.5V14.7858V13.2858H21.8674H14.1531H12.6531V14.7858V22.5Z" fill="url(#paint0_linear_17944_21426)" stroke="url(#paint1_linear_17944_21426)" stroke-width="3"/>
<defs>
<linearGradient id="paint0_linear_17944_21426" x1="35.9311" y1="5.66905" x2="21.1761" y2="38.1391" gradientUnits="userSpaceOnUse">
<stop stop-color="#0052CC"/>
<stop offset="0.9228" stop-color="#2684FF"/>
</linearGradient>
<linearGradient id="paint1_linear_17944_21426" x1="35.9311" y1="5.66905" x2="21.1761" y2="38.1391" gradientUnits="userSpaceOnUse">
<stop stop-color="#0052CC"/>
<stop offset="0.9228" stop-color="#2684FF"/>
</linearGradient>
</defs>
</svg>
