<svg width="17" height="17" viewBox="0 0 17 17" fill="none" xmlns="http://www.w3.org/2000/svg">
<path fill-rule="evenodd" clip-rule="evenodd" d="M8.5 16.5C6.37827 16.5 4.34344 15.6571 2.84315 14.1569C1.34285 12.6566 0.5 10.6217 0.5 8.5C0.5 6.37827 1.34285 4.34344 2.84315 2.84315C4.34344 1.34285 6.37827 0.5 8.5 0.5C10.6217 0.5 12.6566 1.34285 14.1569 2.84315C15.6571 4.34344 16.5 6.37827 16.5 8.5C16.5 10.6217 15.6571 12.6566 14.1569 14.1569C12.6566 15.6571 10.6217 16.5 8.5 16.5ZM9.864 5.536L7.712 9.646L6.169 8.256C6.07136 8.16815 5.95738 8.10038 5.83355 8.05658C5.70972 8.01278 5.57848 7.99379 5.44732 8.00071C5.31616 8.00763 5.18764 8.04031 5.06911 8.0969C4.95058 8.15348 4.84435 8.23286 4.7565 8.3305C4.66865 8.42814 4.60088 8.54212 4.55708 8.66595C4.51328 8.78978 4.49429 8.92102 4.50121 9.05218C4.50813 9.18334 4.54081 9.31186 4.5974 9.43039C4.65399 9.54892 4.73336 9.65515 4.831 9.743L7.331 11.993C7.44427 12.095 7.57937 12.1698 7.72596 12.2116C7.87255 12.2534 8.02676 12.2611 8.17681 12.2342C8.32685 12.2073 8.46875 12.1464 8.59167 12.0563C8.71458 11.9661 8.81526 11.849 8.886 11.714L11.636 6.464C11.7591 6.22902 11.7837 5.95478 11.7046 5.7016C11.6255 5.44843 11.449 5.23706 11.214 5.114C10.979 4.99094 10.7048 4.96627 10.4516 5.04541C10.1984 5.12455 9.98706 5.30102 9.864 5.536Z" fill="white"/>
</svg>
