<svg width="160" height="160" viewBox="0 0 160 160" fill="none" xmlns="http://www.w3.org/2000/svg">
<path fill-rule="evenodd" clip-rule="evenodd" d="M80.0002 146.669C116.819 146.669 146.667 116.822 146.667 80.0026C146.667 43.1836 116.819 13.3359 80.0002 13.3359C43.1812 13.3359 13.3335 43.1836 13.3335 80.0026C13.3335 116.822 43.1812 146.669 80.0002 146.669ZM70.6122 80.1052L60.7802 89.9958C60.1454 90.6126 59.6398 91.3497 59.2929 92.164C58.946 92.9783 58.7648 93.8535 58.7597 94.7386C58.7546 95.6237 58.9258 96.5009 59.2633 97.3191C59.6009 98.1373 60.0979 98.8801 60.7256 99.5042C61.3532 100.128 62.0988 100.621 62.9189 100.954C63.739 101.287 64.6172 101.453 65.5023 101.443C66.3873 101.433 67.2615 101.247 68.0738 100.895C68.8861 100.544 69.6203 100.034 70.2335 99.3958L80.0185 89.5525L89.6135 99.1894C90.8609 100.443 92.5552 101.15 94.3237 101.154C96.0921 101.158 97.7899 100.46 99.0435 99.2127C100.297 97.9653 101.004 96.271 101.008 94.5026C101.013 92.7341 100.314 91.0363 99.0668 89.7827L89.4183 80.0966L99.3002 70.1558C100.511 68.8951 101.179 67.209 101.159 65.4608C101.139 63.7127 100.433 62.0422 99.1936 60.8095C97.9539 59.5768 96.2795 58.8804 94.5312 58.8703C92.7829 58.8603 91.1007 59.5374 89.8468 60.7558L80.0099 70.6514L70.0002 60.6027C68.7455 59.3854 67.0628 58.7096 65.3146 58.721C63.5665 58.7324 61.8927 59.43 60.6539 60.6635C59.4152 61.897 58.7105 63.5678 58.6917 65.3159C58.6729 67.064 59.3415 68.7495 60.5535 70.0094L70.6122 80.1052Z" fill="#C9372C"/>
</svg>
