<svg width="32" height="32" viewBox="0 0 32 32" fill="none" xmlns="http://www.w3.org/2000/svg">
<rect width="32" height="32" rx="3" fill="#091E42" fill-opacity="0.06"/>
<path d="M23.6286 18.1273L22.7342 21.3604C22.405 22.5497 21.1275 22.7083 20.5073 21.6476L17.332 16.2171L14.5592 20.5046C13.9656 21.4217 12.7857 21.4277 12.1862 20.5131L10.9202 18.5803L10.3403 19.1747C9.84746 19.6804 9.05889 19.8849 8.37103 19.7203V22.0483C8.37103 23.0931 8.93374 23.6254 9.93789 23.6254H22.072C23.0663 23.6254 23.629 23.0931 23.629 22.0483L23.6286 18.1273ZM23.6286 11.6987V9.945C23.6286 8.90014 23.0663 8.36786 22.072 8.36786H9.93789C8.93374 8.36786 8.37103 8.90014 8.37103 9.945V17.8607L8.7396 18.0424C8.83089 18.087 9.04174 18.051 9.11331 17.9777L9.84017 17.232C10.5533 16.5004 11.6787 16.6097 12.2385 17.4643L13.3682 19.1884L16.183 14.8367C16.7873 13.9024 17.98 13.9281 18.5419 14.8894L21.3957 19.77L23.6286 11.6987ZM9.90831 25.2429C7.81903 25.2429 6.75403 24.2083 6.75403 22.1293V9.86357C6.75403 7.78457 7.81903 6.75 9.90831 6.75H22.1025C24.202 6.75 25.2465 7.79443 25.2465 9.86357V22.1293C25.2465 24.1984 24.202 25.2429 22.1025 25.2429H9.90831Z" fill="#44546F"/>
</svg>
