<svg width="160" height="160" viewBox="0 0 160 160" fill="none" xmlns="http://www.w3.org/2000/svg">
<path fill-rule="evenodd" clip-rule="evenodd" d="M20 33.3C20 25.9533 25.9533 20 33.3 20H126.7C134.047 20 140 25.9533 140 33.3V126.7C140 130.227 138.599 133.61 136.105 136.105C133.61 138.599 130.227 140 126.7 140H33.3C29.7726 140 26.3897 138.599 23.8955 136.105C21.4012 133.61 20 130.227 20 126.7V33.3ZM70 110L60 100L40 120H120V102L100 80L70 110ZM53.3333 66.6667C56.8696 66.6667 60.2609 65.2619 62.7614 62.7614C65.2619 60.2609 66.6667 56.8696 66.6667 53.3333C66.6667 49.7971 65.2619 46.4057 62.7614 43.9052C60.2609 41.4048 56.8696 40 53.3333 40C49.7971 40 46.4057 41.4048 43.9052 43.9052C41.4048 46.4057 40 49.7971 40 53.3333C40 56.8696 41.4048 60.2609 43.9052 62.7614C46.4057 65.2619 49.7971 66.6667 53.3333 66.6667Z" fill="#44546F"/>
</svg>
