<svg width="84" height="68" viewBox="0 0 84 68" fill="none" xmlns="http://www.w3.org/2000/svg">
<path d="M8.66658 58.9766H75.2999C75.2624 58.9766 75.2624 17.3516 75.2624 17.3516H8.63325C8.66659 17.3516 8.66658 58.9766 8.66658 58.9766ZM0.333252 8.97656C0.333252 4.38073 4.07492 0.664062 8.62492 0.664062H75.3749C79.9499 0.664062 83.6666 4.39323 83.6666 8.9724V59.0224C83.6633 61.222 82.7892 63.3308 81.2354 64.8878C79.6816 66.4447 77.5745 67.323 75.3749 67.3307H8.62492C6.4243 67.3263 4.31532 66.449 2.76081 64.8914C1.2063 63.3338 0.333248 61.223 0.333252 59.0224V8.97656Z" fill="#2F80ED"/>
<path d="M25.3333 8.9974V58.9974H33.6666V8.9974H25.3333ZM50.3333 8.9974V58.9974H58.6666V8.9974H50.3333Z" fill="#2F80ED"/>
<path fill-rule="evenodd" clip-rule="evenodd" d="M8.66658 33.9974H79.4999V42.3307H8.66658V33.9974Z" fill="#2F80ED"/>
</svg>
