<svg width="76" height="76" viewBox="0 0 76 76" fill="none" xmlns="http://www.w3.org/2000/svg">
<path fill-rule="evenodd" clip-rule="evenodd" d="M4.66667 33.8333H13V54.6667H4.66667V33.8333ZM6.98333 4.2C8.00417 2.15833 10.7083 0.5 13.025 0.5H62.9708C65.2875 0.5 67.9958 2.15833 69.0125 4.2L75.5 17.1667H0.5L6.98333 4.2ZM0.5 17.1667H75.5V21.3333H0.5V17.1667ZM63 33.8333H71.3333V54.6667H63V33.8333ZM0.5 21.3333C1.08333 26.0333 5.05833 29.6667 9.875 29.6667C14.6917 29.6667 18.6667 26.0333 19.25 21.3333H0.5ZM19.25 21.3333C19.8333 26.0333 23.8083 29.6667 28.625 29.6667C33.4417 29.6667 37.4167 26.0333 38 21.3333H19.25ZM38 21.3333C38.5833 26.0333 42.5583 29.6667 47.375 29.6667C52.1917 29.6667 56.1667 26.0333 56.75 21.3333H38ZM56.75 21.3333C57.3333 26.0333 61.3083 29.6667 66.125 29.6667C70.9417 29.6667 74.9167 26.0333 75.5 21.3333H56.75ZM4.66667 54.6667H71.3333V67.1458C71.3389 69.3553 70.4668 71.4764 68.9088 73.043C67.3508 74.6096 65.2344 75.4934 63.025 75.5H12.975C11.8805 75.4984 10.7971 75.2808 9.78688 74.8598C8.77661 74.4389 7.85933 73.8227 7.08755 73.0467C6.31578 72.2707 5.70469 71.35 5.28927 70.3374C4.87386 69.3249 4.66228 68.2403 4.66667 67.1458V54.6667Z" fill="#9B51E0"/>
</svg>
