<svg width="18" height="18" viewBox="0 0 18 18" fill="none" xmlns="http://www.w3.org/2000/svg">
<path fill-rule="evenodd" clip-rule="evenodd" d="M8.70104 13.698C8.03828 13.7074 7.38027 13.585 6.76525 13.3378C6.15022 13.0907 5.59045 12.7238 5.11846 12.2584C4.64647 11.793 4.27168 11.2385 4.01587 10.627C3.76005 10.0156 3.62832 9.35936 3.62832 8.69654C3.62832 8.03371 3.76005 7.3775 4.01587 6.76603C4.27168 6.15456 4.64647 5.60004 5.11846 5.13467C5.59045 4.66931 6.15022 4.3024 6.76525 4.05525C7.38027 3.80811 8.03828 3.68567 8.70104 3.69504C10.0277 3.69504 11.2999 4.22203 12.238 5.16009C13.176 6.09815 13.703 7.37043 13.703 8.69704C13.703 10.0237 13.176 11.2959 12.238 12.234C11.2999 13.172 10.0277 13.699 8.70104 13.699V13.698ZM17.069 10.582C16.6764 10.447 16.3357 10.1928 16.0945 9.85488C15.8532 9.51699 15.7233 9.11223 15.723 8.69704C15.723 7.82104 16.286 7.08404 17.068 6.81204C17.1835 6.774 17.2801 6.69361 17.3386 6.58708C17.3971 6.48056 17.4129 6.35582 17.383 6.23804C17.1859 5.54237 16.9052 4.87315 16.547 4.24504C16.488 4.14553 16.3948 4.07088 16.2847 4.03501C16.1747 3.99913 16.0554 4.00448 15.949 4.05004C15.5391 4.21582 15.0863 4.24389 14.659 4.13004C14.3236 4.04039 14.0174 3.86443 13.7711 3.61968C13.5248 3.37493 13.3468 3.06993 13.255 2.73504C13.1383 2.30598 13.165 1.85054 13.331 1.43804C13.376 1.33164 13.3809 1.21256 13.3449 1.10281C13.3089 0.993059 13.2343 0.900069 13.135 0.841039C12.512 0.487938 11.849 0.210635 11.16 0.0150386C11.0424 -0.0151593 10.9176 0.000472222 10.8111 0.0587691C10.7045 0.117066 10.6241 0.213674 10.586 0.329039C10.451 0.721649 10.1968 1.06234 9.85888 1.30361C9.52099 1.54489 9.11623 1.67473 8.70104 1.67504C8.2861 1.67474 7.8816 1.54501 7.54389 1.30391C7.20618 1.06282 6.95209 0.722383 6.81704 0.330039C6.7786 0.214691 6.69798 0.118133 6.59135 0.0597166C6.48471 0.00130025 6.35994 -0.0146585 6.24204 0.0150386C5.53404 0.215039 4.86304 0.500039 4.23804 0.857039C4.14065 0.914104 4.06705 1.00431 4.03069 1.11118C3.99434 1.21804 3.99765 1.33442 4.04004 1.43904C4.18931 1.80285 4.22812 2.20257 4.15164 2.5883C4.07517 2.97404 3.88678 3.32871 3.61 3.60805C3.33322 3.88739 2.9803 4.07903 2.59528 4.15906C2.21027 4.23908 1.81021 4.20395 1.44504 4.05804C1.33888 4.01361 1.22026 4.00898 1.11096 4.04498C1.00166 4.08099 0.909012 4.15522 0.85004 4.25404C0.49282 4.8826 0.213113 5.55215 0.0170405 6.24804C-0.0126514 6.36463 0.00252655 6.48813 0.0595684 6.59406C0.11661 6.7 0.211356 6.78065 0.325041 6.82004C0.712065 6.9585 1.04688 7.21312 1.28369 7.5491C1.5205 7.88507 1.64775 8.28599 1.64804 8.69704C1.64804 9.56404 1.09604 10.296 0.32404 10.574C0.210648 10.6132 0.116085 10.6935 0.0590529 10.7991C0.00202059 10.9046 -0.0133287 11.0277 0.0160405 11.144C0.192093 11.7649 0.43449 12.3651 0.739041 12.934C0.798824 13.0397 0.896658 13.1186 1.0126 13.1547C1.12855 13.1907 1.25388 13.1812 1.36304 13.128C1.95804 12.855 2.70604 12.864 3.46704 13.366C3.58404 13.443 3.69204 13.551 3.76904 13.666C4.29604 14.466 4.28104 15.246 3.96704 15.854C3.90948 15.9604 3.89481 16.0847 3.92606 16.2015C3.9573 16.3183 4.03208 16.4187 4.13504 16.482C4.79699 16.8703 5.50614 17.1718 6.24504 17.379C6.36205 17.4094 6.48622 17.3939 6.59218 17.3357C6.69813 17.2775 6.77785 17.1811 6.81504 17.066C6.94898 16.672 7.20282 16.3296 7.54102 16.087C7.87921 15.8444 8.28482 15.7136 8.70104 15.713C9.57904 15.713 10.319 16.28 10.588 17.066C10.6254 17.1809 10.7052 17.2772 10.8111 17.3354C10.917 17.3935 11.041 17.4091 11.158 17.379C11.8872 17.1739 12.5875 16.8772 13.242 16.496C13.3456 16.4325 13.4207 16.3314 13.4518 16.214C13.4829 16.0965 13.4676 15.9715 13.409 15.865C13.091 15.257 13.072 14.472 13.6 13.67C13.677 13.554 13.785 13.445 13.902 13.368C14.674 12.857 15.429 12.855 16.027 13.138C16.1362 13.1927 16.2621 13.2035 16.3789 13.1682C16.4957 13.1328 16.5945 13.054 16.655 12.948C16.962 12.3785 17.2061 11.7773 17.383 11.155C17.4132 11.0375 17.3975 10.9129 17.3392 10.8065C17.2809 10.7001 17.1843 10.6199 17.069 10.582Z" fill="#44546F"/>
</svg>
