<svg width="49" height="48" viewBox="0 0 49 48" fill="none" xmlns="http://www.w3.org/2000/svg">
<mask id="path-1-inside-1_15241_95871" fill="white">
<path d="M12.833 4C11.6395 4 10.4949 4.47411 9.65103 5.31802C8.80711 6.16193 8.33301 7.30653 8.33301 8.5V39.5C8.33301 40.6935 8.80711 41.8381 9.65103 42.682C10.4949 43.5259 11.6395 44 12.833 44H27.833C29.0192 44.0001 30.1575 43.5317 31.0002 42.6969C31.8429 41.862 32.3219 40.7282 32.333 39.542V36.502C32.333 36.1042 32.175 35.7226 31.8937 35.4413C31.6124 35.16 31.2308 35.002 30.833 35.002C29.927 35.002 29.355 34.756 28.961 34.438C28.545 34.104 28.201 33.588 27.939 32.86C27.393 31.35 27.335 29.36 27.335 27.5C27.335 27.1198 27.1906 26.7538 26.931 26.476L26.601 26.122C26.4924 26.0021 26.379 25.8867 26.261 25.776C26.113 25.636 25.661 25.206 23.895 23.44C22.957 22.502 22.439 21.71 22.269 21.104C22.1987 20.8944 22.1876 20.6695 22.237 20.454C22.311 20.2048 22.453 19.9811 22.647 19.808C22.8198 19.615 23.0427 19.4738 23.291 19.4C23.5058 19.351 23.73 19.362 23.939 19.432C24.543 19.602 25.335 20.124 26.273 21.062C27.353 22.142 28.379 23.156 29.297 24.062C30.817 25.566 32.043 26.782 32.737 27.522C33.0089 27.8105 33.384 27.9797 33.7802 27.9925C34.1765 28.0053 34.5617 27.8606 34.8517 27.5903C35.1416 27.3199 35.3127 26.9457 35.3276 26.5495C35.3425 26.1533 35.1999 25.7674 34.931 25.476C34.0798 24.5855 33.2137 23.7094 32.333 22.848V16.12L38.017 21.804C38.859 22.648 39.335 23.792 39.335 24.984V42.5C39.335 42.8978 39.493 43.2794 39.7743 43.5607C40.0557 43.842 40.4372 44 40.835 44C41.2328 44 41.6144 43.842 41.8957 43.5607C42.177 43.2794 42.335 42.8978 42.335 42.5V24.986C42.3349 24.0009 42.1408 23.0254 41.7636 22.1153C41.3865 21.2053 40.8338 20.3784 40.137 19.682L32.333 11.878V8.498C32.3325 7.30487 31.8581 6.16079 31.0143 5.31731C30.1704 4.47383 29.0261 4 27.833 4H12.833ZM25.117 33.88C25.311 34.416 25.561 34.948 25.885 35.444C25.1207 35.811 24.4757 36.3865 24.0242 37.104C23.5727 37.8216 23.3331 38.6522 23.333 39.5V41H17.333V39.5C17.333 38.3065 16.8589 37.1619 16.015 36.318C15.1711 35.4741 14.0265 35 12.833 35H11.333V13H12.833C14.0265 13 15.1711 12.5259 16.015 11.682C16.8589 10.8381 17.333 9.69347 17.333 8.5V7H23.333V8.5C23.333 9.69347 23.8071 10.8381 24.651 11.682C25.4949 12.5259 26.6395 13 27.833 13H29.333V19.876L28.395 18.94C27.333 17.878 26.099 16.924 24.753 16.544C24.0346 16.3307 23.2723 16.3134 22.545 16.494C22.0937 16.609 21.6659 16.8019 21.281 17.064C20.1503 16.9098 18.9989 17.0343 17.9273 17.4268C16.8557 17.8194 15.8964 18.4679 15.1328 19.3161C14.3692 20.1642 13.8245 21.1861 13.5462 22.2929C13.268 23.3997 13.2645 24.5577 13.5362 25.6661C13.8079 26.7746 14.3464 27.7997 15.1049 28.6524C15.8635 29.5051 16.819 30.1593 17.8882 30.5582C18.9574 30.9571 20.108 31.0886 21.2396 30.9411C22.3713 30.7936 23.4497 30.3716 24.381 29.712C24.455 31.08 24.641 32.566 25.117 33.88ZM16.333 24C16.3328 23.1287 16.6172 22.2811 17.1428 21.5862C17.6684 20.8913 18.4065 20.387 19.245 20.15C19.1702 20.7418 19.2164 21.3426 19.381 21.916C19.759 23.262 20.711 24.498 21.775 25.562L23.105 26.886C22.5394 27.4297 21.8263 27.7951 21.0546 27.9366C20.2829 28.0782 19.4866 27.9896 18.7648 27.682C18.043 27.3744 17.4277 26.8614 16.9953 26.2067C16.5629 25.552 16.3326 24.7846 16.333 24ZM11.333 8.5C11.333 8.10218 11.491 7.72064 11.7723 7.43934C12.0537 7.15804 12.4352 7 12.833 7H14.333V8.5C14.333 8.89782 14.175 9.27936 13.8937 9.56066C13.6124 9.84196 13.2308 10 12.833 10H11.333V8.5ZM26.333 7H27.833C28.2308 7 28.6124 7.15804 28.8937 7.43934C29.175 7.72064 29.333 8.10218 29.333 8.5V10H27.833C27.4352 10 27.0537 9.84196 26.7723 9.56066C26.491 9.27936 26.333 8.89782 26.333 8.5V7ZM29.333 38V39.5C29.333 39.8978 29.175 40.2794 28.8937 40.5607C28.6124 40.842 28.2308 41 27.833 41H26.333V39.5C26.333 39.1022 26.491 38.7206 26.7723 38.4393C27.0537 38.158 27.4352 38 27.833 38H29.333ZM14.333 41H12.833C12.4352 41 12.0537 40.842 11.7723 40.5607C11.491 40.2794 11.333 39.8978 11.333 39.5V38H12.833C13.2308 38 13.6124 38.158 13.8937 38.4393C14.175 38.7206 14.333 39.1022 14.333 39.5V41Z"/>
</mask>
<path d="M12.833 4C11.6395 4 10.4949 4.47411 9.65103 5.31802C8.80711 6.16193 8.33301 7.30653 8.33301 8.5V39.5C8.33301 40.6935 8.80711 41.8381 9.65103 42.682C10.4949 43.5259 11.6395 44 12.833 44H27.833C29.0192 44.0001 30.1575 43.5317 31.0002 42.6969C31.8429 41.862 32.3219 40.7282 32.333 39.542V36.502C32.333 36.1042 32.175 35.7226 31.8937 35.4413C31.6124 35.16 31.2308 35.002 30.833 35.002C29.927 35.002 29.355 34.756 28.961 34.438C28.545 34.104 28.201 33.588 27.939 32.86C27.393 31.35 27.335 29.36 27.335 27.5C27.335 27.1198 27.1906 26.7538 26.931 26.476L26.601 26.122C26.4924 26.0021 26.379 25.8867 26.261 25.776C26.113 25.636 25.661 25.206 23.895 23.44C22.957 22.502 22.439 21.71 22.269 21.104C22.1987 20.8944 22.1876 20.6695 22.237 20.454C22.311 20.2048 22.453 19.9811 22.647 19.808C22.8198 19.615 23.0427 19.4738 23.291 19.4C23.5058 19.351 23.73 19.362 23.939 19.432C24.543 19.602 25.335 20.124 26.273 21.062C27.353 22.142 28.379 23.156 29.297 24.062C30.817 25.566 32.043 26.782 32.737 27.522C33.0089 27.8105 33.384 27.9797 33.7802 27.9925C34.1765 28.0053 34.5617 27.8606 34.8517 27.5903C35.1416 27.3199 35.3127 26.9457 35.3276 26.5495C35.3425 26.1533 35.1999 25.7674 34.931 25.476C34.0798 24.5855 33.2137 23.7094 32.333 22.848V16.12L38.017 21.804C38.859 22.648 39.335 23.792 39.335 24.984V42.5C39.335 42.8978 39.493 43.2794 39.7743 43.5607C40.0557 43.842 40.4372 44 40.835 44C41.2328 44 41.6144 43.842 41.8957 43.5607C42.177 43.2794 42.335 42.8978 42.335 42.5V24.986C42.3349 24.0009 42.1408 23.0254 41.7636 22.1153C41.3865 21.2053 40.8338 20.3784 40.137 19.682L32.333 11.878V8.498C32.3325 7.30487 31.8581 6.16079 31.0143 5.31731C30.1704 4.47383 29.0261 4 27.833 4H12.833ZM25.117 33.88C25.311 34.416 25.561 34.948 25.885 35.444C25.1207 35.811 24.4757 36.3865 24.0242 37.104C23.5727 37.8216 23.3331 38.6522 23.333 39.5V41H17.333V39.5C17.333 38.3065 16.8589 37.1619 16.015 36.318C15.1711 35.4741 14.0265 35 12.833 35H11.333V13H12.833C14.0265 13 15.1711 12.5259 16.015 11.682C16.8589 10.8381 17.333 9.69347 17.333 8.5V7H23.333V8.5C23.333 9.69347 23.8071 10.8381 24.651 11.682C25.4949 12.5259 26.6395 13 27.833 13H29.333V19.876L28.395 18.94C27.333 17.878 26.099 16.924 24.753 16.544C24.0346 16.3307 23.2723 16.3134 22.545 16.494C22.0937 16.609 21.6659 16.8019 21.281 17.064C20.1503 16.9098 18.9989 17.0343 17.9273 17.4268C16.8557 17.8194 15.8964 18.4679 15.1328 19.3161C14.3692 20.1642 13.8245 21.1861 13.5462 22.2929C13.268 23.3997 13.2645 24.5577 13.5362 25.6661C13.8079 26.7746 14.3464 27.7997 15.1049 28.6524C15.8635 29.5051 16.819 30.1593 17.8882 30.5582C18.9574 30.9571 20.108 31.0886 21.2396 30.9411C22.3713 30.7936 23.4497 30.3716 24.381 29.712C24.455 31.08 24.641 32.566 25.117 33.88ZM16.333 24C16.3328 23.1287 16.6172 22.2811 17.1428 21.5862C17.6684 20.8913 18.4065 20.387 19.245 20.15C19.1702 20.7418 19.2164 21.3426 19.381 21.916C19.759 23.262 20.711 24.498 21.775 25.562L23.105 26.886C22.5394 27.4297 21.8263 27.7951 21.0546 27.9366C20.2829 28.0782 19.4866 27.9896 18.7648 27.682C18.043 27.3744 17.4277 26.8614 16.9953 26.2067C16.5629 25.552 16.3326 24.7846 16.333 24ZM11.333 8.5C11.333 8.10218 11.491 7.72064 11.7723 7.43934C12.0537 7.15804 12.4352 7 12.833 7H14.333V8.5C14.333 8.89782 14.175 9.27936 13.8937 9.56066C13.6124 9.84196 13.2308 10 12.833 10H11.333V8.5ZM26.333 7H27.833C28.2308 7 28.6124 7.15804 28.8937 7.43934C29.175 7.72064 29.333 8.10218 29.333 8.5V10H27.833C27.4352 10 27.0537 9.84196 26.7723 9.56066C26.491 9.27936 26.333 8.89782 26.333 8.5V7ZM29.333 38V39.5C29.333 39.8978 29.175 40.2794 28.8937 40.5607C28.6124 40.842 28.2308 41 27.833 41H26.333V39.5C26.333 39.1022 26.491 38.7206 26.7723 38.4393C27.0537 38.158 27.4352 38 27.833 38H29.333ZM14.333 41H12.833C12.4352 41 12.0537 40.842 11.7723 40.5607C11.491 40.2794 11.333 39.8978 11.333 39.5V38H12.833C13.2308 38 13.6124 38.158 13.8937 38.4393C14.175 38.7206 14.333 39.1022 14.333 39.5V41Z" fill="#44546F" stroke="#44546F" stroke-width="6" mask="url(#path-1-inside-1_15241_95871)"/>
</svg>
